<?xml version="1.0" encoding="UTF-8"?>
<!DOCTYPE svg PUBLIC "-//W3C//DTD SVG 1.1//EN" "http://www.w3.org/Graphics/SVG/1.1/DTD/svg11.dtd">
<svg version="1.1" xmlns="http://www.w3.org/2000/svg" xmlns:xlink="http://www.w3.org/1999/xlink" width="688" height="340"  xml:space="preserve" id="canvas2">
    <defs>
        <filter id="canvas2-l_uiForestOuterShadow-outer" filterUnits="userSpaceOnUse">
            <feGaussianBlur stdDeviation="1.5" />
            <feOffset dx="0.1" dy="3.1" result="blur" />
            <feFlood flood-color="rgb(192, 138, 79)" flood-opacity="1" />
            <feComposite in2="blur" operator="in" result="colorShadow" />
            <feComposite in="SourceGraphic" in2="colorShadow" operator="over" />
        </filter>
        <filter id="canvas2-l_uiForestInnerShadow-inner" filterUnits="userSpaceOnUse">
            <feGaussianBlur in="SourceAlpha" stdDeviation="1.5" result="blur"/>
            <feOffset dx="0.1" dy="-3.1"/>
            <feComposite in2="SourceAlpha" operator="arithmetic" k2="-1.15" k3="1.15" result="shadowDiff"/>
            <feFlood flood-color="rgb(247, 236, 218)" flood-opacity="1"/>
            <feComposite in2="shadowDiff" operator="in"/>
            <feComposite in2="SourceGraphic" operator="over"/>
        </filter>
    </defs>
    <g id="canvas2-group3">
        <g filter="url(#canvas2-l_uiForestOuterShadow-outer)">
            <path id="canvas2-l_uiForestText" stroke="none" fill="rgb(228, 182, 102)" filter="url(#canvas2-l_uiForestInnerShadow-inner)" d="M 2.16,0.84 L 0,340.02 68.57,301.22 68.57,154.47 116.82,154.47 116.82,96.79 68.57,96.79 68.57,60.67 295.22,60.67 331.09,0.46 2.16,0.84 Z M 185.12,72.83 C 172.02,75.05 161.42,80.86 151.42,91.28 144.62,98.37 140.05,105.81 135.31,117.43 131.35,126.91 129.11,142.2 129.02,159.72 129.02,181.93 132.29,198.68 139.62,212.78 145.65,224.31 152.63,232.26 162.71,238.84 172.53,245.24 179.43,247.55 192.01,248.41 221.13,250.54 246.38,229.18 255.34,194.84 261.12,172.88 260.6,141.09 254.05,120.76 249.66,106.92 241.3,93.42 232.42,85.9 226.48,80.86 215.45,75.05 209.24,73.68 203.12,72.4 190.29,71.89 185.12,72.83 Z M 200.97,117.26 C 204.07,119.65 207.35,126.4 209.07,133.75 210.88,141.78 211.14,176.81 209.33,183.81 205.54,199.28 202.26,203.98 194.85,204.83 190.97,205.34 190.29,205.17 187.53,202.7 180.63,196.71 177.27,183.13 177.27,161.17 177.27,153.65 177.7,144.68 178.22,141.27 179.86,129.47 183.99,120.42 189.17,117.09 192.44,114.86 198.04,114.95 200.97,117.26 Z M 270.3,233.82 L 312.63,231.43 312.71,199.08 C 312.79,169.15 312.87,166.98 313.97,170.36 315.45,175.02 334.82,228.13 335.29,229.34 336.07,231.51 380.99,231.59 381.3,231.27 381.54,231.11 351.04,166.17 351.04,165.53 351.04,165.21 353,163.76 355.51,162.31 363.74,157.56 370.01,149.2 372.99,139.06 375.03,132.06 375.03,118.3 373.07,110.09 369.62,95.85 360.76,83.94 349.4,78.39 337.4,72.51 328.86,71.38 295.62,71.38 L 270.3,71.38 270.3,233.82 Z M 324.78,109.69 C 332.54,113.47 334.97,126.99 329.64,136.88 327.13,141.63 321.33,145.41 316.55,145.41 L 312.79,145.41 312.79,126.42 312.79,107.35 317.49,107.92 C 320.08,108.16 323.37,108.96 324.78,109.69 Z M 383.9,71.79 L 383.9,231.79 464.86,243.36 461.92,193.18 426.12,193.18 426.12,169.05 458.95,169.05 458.95,133.01 C 458.95,133.01 428.86,132.44 427.92,132.28 426.12,131.88 426.12,109.52 426.12,109.52 L 462.47,109.11 462.47,71.47 383.9,71.79 Z M 515.3,71.92 C 496.52,75.05 481.56,89.09 475.02,109.65 469.84,126.37 470.77,141.92 477.91,156.67 480.54,162.12 490.49,172.76 501.62,182.15 511.99,190.91 514.54,194.49 514.54,200.56 514.54,210.93 500.69,214.78 488.28,207.81 485.13,206.02 480.88,202.44 477.57,198.69 L 472.05,192.52 472.22,220.5 472.47,248.48 477.74,250.45 C 490.49,255.19 507.74,257.06 518.11,254.74 544.03,248.93 560.77,225.69 560.68,195.74 560.6,173.21 552.86,160.25 528.13,141.29 517.94,133.43 515.13,127.53 518.79,121.36 521.34,116.89 524.91,115.37 531.45,116.08 539.69,116.89 547.17,122.16 554.22,132.27 L 556.09,134.95 556.18,107.5 556.18,80.15 549.89,77.38 C 538.5,72.37 525.33,70.31 515.3,71.92 Z M 355.01,0.47 C 354.79,1.21 390.88,60.66 390.88,60.66 L 586.08,60.66 586.08,287.67 654.64,321.18 654.64,60.66 687.44,60.66 687.44,0.47 C 687.44,0.47 355.43,-0.59 355.01,0.47 Z M 355.01,0.47" />
        </g>
        <path id="canvas2-l_uiKingText" stroke="none" fill="rgb(192, 138, 79)" d="M 255.36,334.74 L 273.6,334.57 C 273.6,334.57 273.16,304.73 273.3,304.9 273.43,305.04 284.98,334.47 285.05,334.54 285.18,334.71 304.78,334.81 304.78,334.64 304.78,334.57 288.5,300.16 288.5,300.16 L 303.06,267.71 283.73,267.87 C 283.73,267.87 273.54,295.16 273.3,295.56 273.16,295.83 273.6,267.71 273.6,267.71 L 255.36,267.71 255.36,334.74 Z M 308.57,334.57 L 326.31,334.74 326.31,267.71 308.57,267.71 308.57,334.57 Z M 330.57,334.61 C 330.67,334.64 348.18,334.74 348.18,334.74 348.18,334.74 347.87,304.9 347.32,298.95 347.18,297.41 347.56,298.25 349.53,303.83 350.84,307.52 361.06,334.44 361.17,334.54 361.27,334.64 378.92,334.74 378.92,334.74 L 378.92,267.71 C 378.92,267.71 361.34,267.81 361.24,268.11 361.13,268.34 361.13,273.15 361.17,278.79 361.27,288.07 361.65,294.18 362.86,305.17 363,306.35 348.18,267.71 348.18,267.71 L 330.39,267.71 C 330.39,267.71 330.46,334.61 330.57,334.61 Z M 404.25,267.86 C 403.89,267.92 402.78,268.15 401.8,268.35 397.55,269.16 392.32,272.63 389.38,276.59 383.4,284.61 381.18,298.12 383.53,312.14 384.84,319.87 389.22,327.34 394.74,331.1 398.3,333.54 404.74,335.09 409.64,334.67 420.69,333.76 427.58,327.17 430.07,315.13 430.85,311.43 431.54,304.35 431.54,300.03 L 431.54,296.23 406.87,296.23 C 406.87,296.23 407,308.73 407,309.12 407.03,309.84 413.24,309.87 413.24,309.87 L 413.24,311.33 C 413.24,314.19 411.6,317.47 409.64,318.47 409.12,318.73 407.94,318.96 407.06,318.96 405.62,318.96 405.23,318.8 404.09,317.79 401.73,315.68 400.75,311.56 400.75,303.6 400.72,294.81 401.51,289.68 403.4,286.36 406.15,281.49 411.67,282.79 412.75,288.54 412.88,289.19 413.11,289.74 413.24,289.74 413.53,289.74 416.02,288.9 421.24,287.01 427.98,284.58 429.9,283.8 429.9,283.54 429.9,282.89 428.66,280.52 427.13,278.22 423.4,272.63 418.53,269.26 412.62,268.18 410.13,267.7 405.85,267.57 404.25,267.86 Z M 404.25,267.86" />
        <path id="canvas2-l_uiForestShadowBg" stroke="none" fill="rgb(115, 69, 9)" fill-opacity="0.33" d="M 206.39,1.25 C 206.4,4.51 267.7,42.97 267.71,46.25 267.72,47.69 215.1,12.73 212.71,22.3 208.61,38.72 205.61,13.43 205.53,15.03 205.58,27.67 205.67,40.38 205.76,52.63 205.79,56.58 203.28,68.01 234.23,53.43 257.27,42.57 245.1,50.72 230.24,60.67 L 147.61,60.67 C 149.08,56.79 149.36,54.24 149.32,52.69 149.1,44.24 148.86,35.85 148.62,27.61 148.55,25.4 121.66,32.88 98.29,39.1 101.78,42.8 104.06,45.48 104.06,46.25 104.07,46.69 100.72,43.74 96.03,39.7 79.04,44.21 64.48,47.84 64.43,46.25 64.38,44.68 72.36,40.23 83.4,34.67 84.03,34.36 84.61,32.91 84.94,30.45 76.08,23.43 67.31,17.69 66.52,22.3 63.81,38.21 61.81,14.97 61.64,14.95 61.66,27.71 61.72,40.4 61.79,52.63 61.8,56.58 60.09,68.01 81.21,53.43 96.94,42.57 88.64,50.72 78.49,60.67 L 68.57,60.67 C 68.57,60.67 68.57,64.96 68.57,70.58 64.72,74.57 61.91,77.84 61.91,78.99 61.94,84.59 61.96,89.92 61.98,94.91 61.98,97.47 69.34,99.46 84.2,96.79 L 101,96.79 C 81.67,106.7 62.02,116.77 62.02,116.77 61.98,118.26 61.97,119.57 61.96,120.79 79.45,127.55 99.95,135.56 116.82,141.77 116.82,149.16 116.82,154.47 116.82,154.47 L 78.59,154.47 C 88.05,151.08 95.77,147.87 93.82,146.64 84.23,140.61 73.55,134.32 61.86,127.96 61.8,130.31 61.73,131.85 61.63,132.44 61.47,133.36 61.34,136.33 61.24,140.93 61.18,143.8 58.01,142.22 66.52,151.59 72.21,157.85 63.81,157.96 61.54,160.33 63.73,159.58 66.12,158.78 68.57,157.95 68.57,159.01 68.57,160.3 68.57,161.79 65.65,162.39 63.14,162.9 60.99,163.31 60.97,166.15 60.96,169.14 60.94,172.25 60.94,173.07 63.92,173.72 68.57,174.28 68.57,178.98 68.57,184.32 68.57,190.09 64.36,191.11 61.46,192.12 60.98,192.72 60.9,204.19 60.91,216.23 60.94,228.61 60.94,230.09 64.17,235.95 68.57,243.41 68.57,249.26 68.57,254.98 68.57,260.4 64.14,255.75 61.01,253.88 61.02,255.51 61.06,267.01 61.11,278.46 61.16,289.41 61.17,291.7 62.12,293.09 66.52,295.24 71.42,297.63 61.22,301.15 61.23,303.57 L 61.24,305.37 C 44.54,314.82 4.76,337.33 0.39,339.8 0.31,339.11 0.19,338.33 0.02,337.46 0.03,335.05 0.06,331.01 0.09,325.6 3.62,331.01 6.79,335.65 7.2,335.16 14.69,326.2 22.04,317.37 22.06,316.2 22.19,310.09 22.31,303.55 22.44,296.65 22.46,295.86 18.68,292.82 13.76,289.09 12.86,288.42 5.18,292.29 0.29,294.25 0.3,292.71 0.31,291.15 0.32,289.55 3.08,286.54 6.09,283.37 5.29,282.77 3.6,281.52 1.94,280.28 0.39,279.1 0.4,277.42 0.41,275.72 0.42,273.99 9.64,277.86 22.67,283.96 22.7,282.33 22.76,278.42 22.83,274.42 22.9,270.33 22.95,266.86 22.46,261.72 14.3,261.72 6.33,261.72 23.17,252.67 23.22,249.06 23.31,242.21 23.4,235.19 23.49,228.02 23.51,226.4 12.19,230.52 0.67,234.99 0.68,233.21 0.69,231.42 0.7,229.62 18.5,216.88 23.73,205.52 23.76,201.76 23.79,198.72 23.81,195.66 23.84,192.59 23.86,189.64 25.76,173.85 14.3,161.17 12.6,159.29 11.14,155.2 1.18,155.1 1.21,150.67 1.23,146.25 1.26,141.86 14.26,148.87 24.06,153.55 24.06,151.46 24.08,145.14 24.09,138.79 24.09,132.44 24.09,129.18 20.84,128.58 20.82,125.25 20.81,120.36 23.42,113.21 23.9,107.77 23.34,107.3 23.38,107.1 23.95,107.14 23.97,106.76 23.98,106.39 23.98,106.04 23.91,97.37 23.81,88.57 23.69,79.73 23.66,77.19 9.26,96.47 1.49,106.31 1.49,105.29 1.5,104.28 1.51,103.28 21.41,71.33 23.35,57.42 23.27,52.69 23.12,44.24 22.96,35.85 22.79,27.61 22.75,26.02 13.23,29.45 1.95,33.82 1.99,27.72 2.02,22.32 2.05,17.74 13.06,9.9 22.26,3.03 22.22,1.07 L 22.21,0.82 C 32.5,0.8 46.23,0.79 62.21,0.77 L 62.21,1.25 C 62.22,2.99 74.12,14.74 85.23,25.82 85.26,19.94 84.31,11.36 81.42,0.75 83.52,0.74 85.65,0.74 87.8,0.74 95.3,13.92 102.27,25.44 103.65,24.78 125.31,14.34 147.86,3.61 147.78,1.07 147.78,1.07 147.77,0.91 147.77,0.67 167.32,0.65 187.23,0.62 206.38,0.6 L 206.39,1.25 Z M 412.06,0.02 L 412.06,1.25 C 412.08,4.24 463.57,36.8 472.18,44.73 474.78,42.58 481.47,38.95 489.98,34.67 492.03,33.64 493.5,20.54 487.8,0.03 489.85,0.03 491.91,0.03 493.97,0.04 501.62,13.5 508.82,25.46 510.22,24.78 531.88,14.34 554.44,3.61 554.35,1.07 L 554.32,0.13 C 575.03,0.17 595.03,0.22 612.95,0.26 L 612.96,1.25 C 612.97,3.24 635.92,18.42 653.74,30.65 654.27,25.2 653.96,14.58 651.29,0.36 652.76,0.37 654.18,0.37 655.57,0.38 660.74,13.71 665.58,25.45 666.53,24.78 674.05,19.47 681.72,14.09 687.44,9.75 687.44,15.19 687.44,22.4 687.44,29.68 681.19,31.88 672.79,35.22 664.78,38.35 670.49,42.44 674.28,45.43 674.28,46.25 674.29,46.7 669.17,43.6 662.05,39.42 650.14,44.06 639.8,47.88 639.76,46.25 639.73,44.68 645.18,40.23 652.72,34.67 652.83,34.59 652.93,34.44 653.03,34.21 638.13,25.76 620.63,16.88 619.28,22.3 615.31,38.21 612.38,14.97 612.12,14.95 612.16,27.71 612.24,40.4 612.33,52.63 612.36,56.58 609.86,68.01 640.8,53.43 681.46,34.28 612.49,74.27 612.52,78.99 612.56,84.59 612.59,89.92 612.61,94.91 612.63,97.82 626.53,99.99 654.64,95.44 654.64,97.31 654.64,99.24 654.64,101.23 642.17,105.51 630.79,109.5 623.03,112.39 631.22,116.85 642.91,123.55 654.64,130.18 654.64,134.02 654.64,137.95 654.64,141.96 645.92,134.19 636.01,126.1 625.07,118.07 622.86,116.45 620.95,115.03 619.33,113.8 615.1,115.43 612.63,116.54 612.62,116.88 612.57,125.54 612.42,131.18 612.1,132.44 611.87,133.36 611.69,136.33 611.54,140.93 611.44,143.8 606.8,142.22 619.28,151.59 628.84,158.77 611.21,157.86 611.18,161.55 611.15,164.91 611.12,168.48 611.1,172.25 611.09,174.06 632.67,175.07 654.64,176.1 654.64,179.72 654.64,183.34 654.64,186.97 634.07,187.54 611.95,191.45 611.07,192.8 611.03,204.13 611.05,216.2 611.1,228.61 611.1,230.83 621.78,242.96 632.9,255.51 634.6,257.43 646.23,241.04 654.64,229.05 654.64,230.44 654.64,231.81 654.64,233.18 646.86,246.31 640.71,255.14 640.8,261.72 640.91,269.86 650.01,274.39 650.62,275.82 651.4,277.67 653.05,282.84 654.64,288.25 654.64,291.23 654.64,294.05 654.64,296.69 639.3,268.87 611.19,251.48 611.21,255.51 611.27,267.01 611.34,278.46 611.42,289.41 611.43,291.7 612.83,293.09 619.28,295.24 624.49,296.98 618.04,299.3 614.12,301.37 599.29,294.13 586.08,287.67 586.08,287.67 L 586.08,60.66 554.22,60.66 C 555.65,56.8 555.93,54.24 555.89,52.69 555.67,44.24 555.44,35.85 555.19,27.61 555.07,23.7 471.12,50.09 471,46.25 470.99,46.03 471.15,45.75 471.45,45.41 461.92,40.21 420.5,13.83 418.38,22.3 414.41,38.21 411.48,14.97 411.23,14.95 411.26,27.71 411.35,40.4 411.44,52.63 411.47,56.58 408.96,68.01 439.91,53.43 462.94,42.58 450.79,50.71 435.93,60.66 L 390.88,60.66 C 390.88,60.66 354.79,1.21 355.01,0.47 355.12,0.19 378.16,0.06 412.06,0.02 Z M 293.34,0.5 C 300.89,13.78 307.94,25.45 309.32,24.78 312.73,23.14 316.17,21.49 319.53,19.86 317.64,23.03 315.65,26.38 313.64,29.74 312.03,32.45 310.41,35.16 308.84,37.8 289,43.11 270.16,48.06 270.1,46.25 270.06,44.68 278.04,40.23 289.08,34.67 291.11,33.65 292.58,20.74 287.04,0.51 289.2,0.51 291.31,0.5 293.34,0.5 Z M 484.75,90.69 C 485.34,89.92 485.95,89.16 486.58,88.43 495.69,86.08 505.64,83.22 516.44,79.76 546.85,70.02 519.23,79.08 484.75,90.69 Z M 270.3,93.65 C 270.3,92.76 270.3,91.88 270.3,91.03 282.14,88.29 295.62,84.62 310.76,79.76 343.72,69.21 308.53,80.73 270.3,93.65 Z M 349.4,78.39 C 350.73,79.04 352.03,79.77 353.28,80.59 346.91,84.96 329.13,101.23 320.63,108.4 320.02,108.28 319.4,108.17 318.8,108.08 319.8,106.92 321.1,105.48 322.72,103.71 332.98,92.51 340.02,83.5 344.83,76.33 346.34,76.94 347.84,77.62 349.4,78.39 Z M 411.64,78.89 C 411.67,84.59 411.7,89.92 411.72,94.91 411.73,98.1 428.51,100.41 462.47,93.89 462.47,95.39 462.47,96.85 462.47,98.24 452.28,101.72 442.43,105.12 434.15,108.05 435.28,108.4 436.62,108.85 438.16,109.38 436.32,109.4 434.58,109.42 433.02,109.44 432.64,109.21 432.3,109.01 431.99,108.82 431.37,109.04 430.76,109.26 430.16,109.47 427.68,109.5 426.12,109.52 426.12,109.52 426.12,109.52 426.12,110.04 426.13,110.93 417.35,114.12 411.73,116.36 411.73,116.88 411.67,125.54 411.52,131.18 411.21,132.44 410.98,133.36 410.79,136.33 410.64,140.93 410.55,143.8 405.91,142.22 418.38,151.59 427.95,158.77 410.32,157.86 410.28,161.55 410.25,164.91 410.23,168.48 410.21,172.25 410.2,173.24 416.66,173.99 426.12,174.64 426.12,179.16 426.12,185.41 426.12,189.37 416.74,190.7 410.15,192.2 410.15,192.88 410.14,204.07 410.16,216.17 410.2,228.61 410.2,229.57 412.21,232.39 415.38,236.29 398.55,233.88 383.9,231.79 383.9,231.79 L 383.9,71.79 C 383.9,71.79 401.41,71.72 419.89,71.64 415.03,75.14 411.62,77.94 411.63,78.99 L 411.64,78.89 Z M 549.89,77.38 C 549.89,77.38 553.75,79.08 555.42,79.81 547.47,84.09 499.42,130.12 523.61,103.71 534.11,92.24 541.24,83.08 546.06,75.83 547.35,76.31 548.63,76.82 549.89,77.38 Z M 116.82,103.95 C 116.82,104.84 116.82,105.8 116.82,106.81 109.61,113.01 106.75,114.96 116.82,103.95 Z M 209.24,73.68 C 209.76,73.8 210.3,73.94 210.88,74.11 207.87,76.43 205.94,78.2 205.95,78.99 205.99,84.59 206.02,89.92 206.04,94.91 206.05,97.59 217.91,99.65 241.85,96.37 243.15,98.18 244.41,100.09 245.6,102.08 240.29,103.9 235.23,105.67 230.59,107.3 233.67,108 241.52,110.83 251.89,114.76 252.69,116.74 253.41,118.75 254.05,120.76 252.27,119.93 250.43,119 248.58,118.07 236.68,112.12 230.84,108.89 229.49,107.69 215.71,112.56 206.06,116.21 206.05,116.88 206.03,119.79 206,122.36 205.96,124.54 204.44,121.21 202.68,118.57 200.97,117.26 198.04,114.95 192.44,114.86 189.17,117.09 183.99,120.42 179.86,129.47 178.22,141.27 177.7,144.68 177.27,153.65 177.27,161.17 177.27,168.18 177.62,174.33 178.31,179.66 179.78,191.03 182.83,198.62 187.53,202.7 190.29,205.17 190.97,205.34 194.85,204.83 199.14,204.34 202.05,202.55 204.47,198.14 204.47,207.82 204.49,218.09 204.52,228.61 204.53,230.15 209.68,236.47 216.55,244.39 208.92,247.61 200.64,249.04 192.01,248.41 179.43,247.55 172.53,245.24 162.71,238.84 154.47,233.46 148.3,227.16 143.03,218.74 142.17,217.37 141.34,215.95 140.52,214.46 147.51,208.53 150.02,203.91 150.04,201.76 150.08,198.72 150.12,195.66 150.16,192.59 150.19,189.64 152.97,173.85 136.17,161.17 134.65,160.02 133.26,158.04 129.06,156.65 129.13,153.1 129.29,149.65 129.53,146.33 142.05,150.68 150.48,153.06 150.48,151.46 150.51,145.14 150.52,138.79 150.52,132.44 150.52,129.18 145.76,128.58 145.74,125.25 145.71,119.82 150.43,111.61 150.36,106.04 150.31,101.6 150.25,97.12 150.17,92.62 150.58,92.17 151,91.73 151.42,91.28 161.42,80.86 172.02,75.05 185.12,72.83 190.29,71.89 203.12,72.4 209.24,73.68 Z M 556.11,130.12 C 554.71,128.59 552.32,127.6 552.31,125.25 552.29,121.25 554.85,115.73 556.17,110.88 556.15,115.7 556.13,124.6 556.11,130.12 Z M 355.67,82.28 C 363.98,88.62 370.29,98.59 373.07,110.09 375.03,118.3 375.03,132.06 372.99,139.06 370.01,149.2 363.74,157.56 355.51,162.31 353,163.76 351.04,165.21 351.04,165.53 351.04,166.17 381.54,231.11 381.3,231.27 381.13,231.45 367.61,231.5 355.26,231.16 355.28,230.12 355.3,229.07 355.32,228.02 355.34,227.01 348.91,228.23 339.98,230.37 337.21,230.09 335.44,229.76 335.29,229.34 335.2,229.11 334.4,226.95 333.17,223.58 350.29,213.41 355.68,204.92 355.72,201.76 355.76,198.72 355.8,195.66 355.84,192.59 355.87,189.64 358.64,173.85 341.85,161.17 337.81,158.11 334.68,149.19 277.28,161.17 274.69,161.71 272.37,162.18 270.3,162.59 L 270.3,159.28 C 284.08,154.62 302.39,148.46 299.49,146.64 290.67,141.09 280.92,135.31 270.3,129.47 270.3,126.89 270.3,124.33 270.3,121.82 283.89,127.08 299.04,132.97 312.79,138.15 312.79,142.05 312.79,145.41 312.79,145.41 L 316.55,145.41 C 319.15,145.41 322.04,144.3 324.55,142.52 342.7,149.16 356.15,153.48 356.16,151.46 356.19,145.14 356.2,138.79 356.2,132.44 356.2,129.18 351.43,128.58 351.42,125.25 351.39,119.82 356.1,111.61 356.04,106.04 355.95,98.21 355.82,90.26 355.67,82.28 Z M 212.71,151.59 C 218.3,155.79 214.6,157.22 210.55,158.42 210.53,155.51 210.47,152.59 210.38,149.82 211.08,150.36 211.85,150.95 212.71,151.59 Z M 654.64,158.35 C 651.62,159.12 648.3,160.05 644.66,161.17 612.49,171 641.75,159.2 654.64,151.59 654.64,153.83 654.64,156.08 654.64,158.35 Z M 259.32,163.11 L 259.28,164.62 C 254.32,165.35 255.31,164.63 259.32,163.11 Z M 458.95,163.6 C 458.95,164.02 458.95,164.41 458.95,164.78 455.87,165.16 456.36,164.65 458.95,163.6 Z M 498.65,179.59 C 499.33,179.82 499.7,180.06 499.7,180.32 L 498.65,179.59 Z M 258.52,176.6 C 258.16,180.16 257.68,183.63 257.07,186.96 238.22,186.43 214.84,189.79 207.09,191.81 207.84,189.53 208.58,186.89 209.33,183.81 209.79,182.01 210.12,178.34 210.32,173.75 220.04,174.92 240.35,175.71 258.52,176.6 Z M 270.3,177.23 C 283.82,178.02 294.02,178.96 294.02,180.32 294.02,180.99 267.71,180.32 277.28,187.5 281.06,190.34 304.5,208.41 312.67,215.63 L 312.67,217.28 C 310.76,216.15 307.81,214.26 303.59,211.44 284.97,199.02 275.73,192.36 270.3,189.4 270.3,185.47 270.3,181.4 270.3,177.23 Z M 509.26,211.44 C 508.65,211.03 508.05,210.63 507.45,210.23 508.45,209.85 509.36,209.38 510.18,208.82 521.55,218.01 528.13,224.03 509.26,211.44 Z M 456.65,228.2 C 453.92,232.99 451.3,237.26 448.99,241.09 447.88,240.93 446.72,240.77 445.53,240.6 457.34,224.39 470.47,203.99 456.65,228.2 Z M 472.25,122.23 C 492.54,130.08 516.12,139.27 533.25,145.33 553.95,162.18 560.6,174.84 560.68,195.74 560.72,207.74 558.05,218.67 553.17,227.82 536.76,230 460.95,253.02 497.31,240.17 544.2,223.6 556.55,206.54 556.62,201.76 556.66,198.72 556.69,195.66 556.73,192.59 556.76,189.64 559.54,173.85 542.75,161.17 538.76,158.15 535.66,149.43 480.45,160.7 479.42,159.29 478.6,158.03 478.05,156.95 490.29,152.76 502.82,148.17 500.39,146.64 491.72,141.18 482.14,135.51 471.74,129.77 471.75,127.28 471.93,124.77 472.25,122.23 Z M 654.64,241.79 L 654.64,242.96 C 650.4,244.52 649.36,244.63 654.64,241.79 Z M 654.64,241.79" />
    </g>
</svg>
